<svg width="751" height="522" viewBox="0 0 751 522" fill="none" xmlns="http://www.w3.org/2000/svg">
<path d="M162.728 508.86H174.42L179.983 463.761L162.726 463.762L162.728 508.86Z" fill="#A0616A"/>
<path d="M159.746 505.043L182.772 505.042H182.773C186.664 505.042 190.396 506.588 193.148 509.34C195.9 512.092 197.446 515.824 197.447 519.716V520.193L159.746 520.194L159.746 505.043Z" fill="#2F2E41"/>
<path d="M239.964 508.86H251.657L257.219 463.761L239.963 463.762L239.964 508.86Z" fill="#A0616A"/>
<path d="M236.982 505.043L260.008 505.042H260.009C263.901 505.042 267.633 506.588 270.385 509.34C273.137 512.092 274.683 515.824 274.683 519.716V520.193L236.983 520.194L236.982 505.043Z" fill="#2F2E41"/>
<path d="M525.986 520.264H0V522H525.986V520.264Z" fill="#E6E6E6"/>
<path d="M152.938 499.08H183.226L202.585 329.571L238.178 499.08H258.614V296.946L161.449 267.866L152.938 499.08Z" fill="#2F2E41"/>
<path d="M204.581 118.722C219.169 118.722 230.994 106.896 230.994 92.3081C230.994 77.7203 219.169 65.8945 204.581 65.8945C189.994 65.8945 178.168 77.7203 178.168 92.3081C178.168 106.896 189.994 118.722 204.581 118.722Z" fill="#A0616A"/>
<path d="M163.577 272.122C191.918 294.287 223.201 305.459 258.614 301.201C243.658 248.687 239.222 196.571 253.649 145.167L223.862 131.691L190.378 129.564L166.042 136.722C162.619 137.73 159.621 139.835 157.512 142.714C155.403 145.592 154.298 149.085 154.369 152.653C155.228 196.49 152.314 237.516 163.577 272.122Z" fill="#E6E6E6"/>
<path d="M179.302 79.0255C181.843 74.2311 185.071 64.6759 190.2 62.9038C193.048 61.9593 195.992 61.3322 198.978 61.0338L207.696 64.3868L202.951 60.6966C203.875 60.6416 204.798 60.5966 205.721 60.5616L211.603 62.8239L208.594 60.4834C214.077 60.4271 219.737 60.9973 223.986 64.3355C227.609 67.1814 231.198 77.9622 231.778 82.532C232.398 86.9036 232.181 91.3533 231.138 95.6438L229.649 97.0602C229.127 95.8655 228.736 94.6183 228.48 93.3402C227.946 90.952 226.92 88.7013 225.468 86.7315C224.016 84.7617 222.17 83.1159 220.047 81.8992L219.966 81.8534C217.467 80.4473 214.436 80.5121 211.571 80.6153L197.964 81.1049C194.69 81.2227 191.165 81.4298 188.613 83.4834C186.889 84.8702 185.856 86.9174 184.874 88.8997C183.606 91.4594 181.128 101.114 181.128 101.114C181.128 101.114 179.726 99.2914 179.054 100.648C177.976 97.1089 177.321 93.4548 177.102 89.7619C176.887 86.0526 177.646 82.3516 179.302 79.0255Z" fill="#2F2E41"/>
<path d="M731.335 249.594H426.411C421.198 249.588 416.199 247.514 412.513 243.827C408.826 240.141 406.753 235.142 406.747 229.929V19.665C406.753 14.4513 408.826 9.45285 412.513 5.76622C416.199 2.07959 421.198 0.00587327 426.411 0H731.335C736.549 0.00587327 741.547 2.07959 745.234 5.76622C748.92 9.45285 750.994 14.4513 751 19.665V229.929C750.994 235.142 748.92 240.141 745.234 243.827C741.547 247.514 736.549 249.588 731.335 249.594ZM426.411 1.73568C421.658 1.74107 417.101 3.63176 413.74 6.99299C410.378 10.3542 408.488 14.9115 408.482 19.665V229.929C408.488 234.682 410.378 239.239 413.74 242.601C417.101 245.962 421.658 247.853 426.411 247.858H731.335C736.089 247.853 740.646 245.962 744.007 242.601C747.368 239.239 749.259 234.682 749.264 229.929V19.665C749.259 14.9115 747.368 10.3542 744.007 6.99299C740.646 3.63176 736.089 1.74107 731.335 1.73568H426.411Z" fill="#F0F0F0"/>
<path d="M374.637 267.246V56.9822C374.643 51.9985 376.625 47.2206 380.149 43.6967C383.673 40.1727 388.45 38.1904 393.434 38.1848H698.358C703.341 38.1904 708.119 40.1727 711.643 43.6967C715.167 47.2206 717.149 51.9985 717.155 56.9822V267.246C717.149 272.229 715.167 277.007 711.643 280.531C708.119 284.055 703.341 286.038 698.358 286.043H393.434C388.45 286.038 383.673 284.055 380.149 280.531C376.625 277.007 374.643 272.229 374.637 267.246Z" fill="#E4E4E4"/>
<path d="M386.63 267.616V56.6121C386.632 55.0759 387.243 53.603 388.329 52.5167C389.415 51.4304 390.888 50.8194 392.424 50.8176H699.368C700.904 50.8194 702.377 51.4304 703.463 52.5167C704.549 53.603 705.16 55.0759 705.162 56.6121V267.616C705.16 269.152 704.549 270.625 703.463 271.711C702.377 272.798 700.904 273.409 699.368 273.41H392.424C390.888 273.409 389.415 272.798 388.329 271.711C387.243 270.625 386.632 269.152 386.63 267.616Z" fill="white"/>
<path d="M510.304 329.585C515.022 329.585 518.846 325.761 518.846 321.043C518.846 316.325 515.022 312.501 510.304 312.501C505.587 312.501 501.762 316.325 501.762 321.043C501.762 325.761 505.587 329.585 510.304 329.585Z" fill="#E6E6E6"/>
<path d="M545.896 329.585C550.614 329.585 554.438 325.761 554.438 321.043C554.438 316.325 550.614 312.501 545.896 312.501C541.178 312.501 537.354 316.325 537.354 321.043C537.354 325.761 541.178 329.585 545.896 329.585Z" fill="#E6E6E6"/>
<path d="M581.488 329.585C586.205 329.585 590.03 325.761 590.03 321.043C590.03 316.325 586.205 312.501 581.488 312.501C576.77 312.501 572.946 316.325 572.946 321.043C572.946 325.761 576.77 329.585 581.488 329.585Z" fill="#E6E6E6"/>
<path d="M545.896 224.131C533.63 224.131 521.64 220.493 511.442 213.679C501.244 206.864 493.295 197.179 488.601 185.847C483.907 174.515 482.679 162.045 485.072 150.015C487.465 137.985 493.371 126.935 502.044 118.262C510.717 109.589 521.767 103.682 533.797 101.289C545.827 98.8961 558.296 100.124 569.628 104.818C580.96 109.512 590.645 117.461 597.46 127.659C604.274 137.858 607.911 149.848 607.911 162.114V162.114C607.893 178.556 601.353 194.319 589.727 205.946C578.101 217.572 562.338 224.112 545.896 224.131Z" fill="#A3B78F"/>
<path d="M570.366 155.997H552.013V137.644C552.011 136.023 551.365 134.47 550.218 133.325C549.071 132.18 547.517 131.537 545.896 131.537C544.275 131.537 542.721 132.18 541.574 133.325C540.427 134.47 539.781 136.023 539.778 137.644V155.997H521.426C519.805 155.999 518.252 156.645 517.107 157.792C515.962 158.939 515.319 160.493 515.319 162.114C515.319 163.735 515.962 165.289 517.107 166.436C518.252 167.583 519.805 168.229 521.426 168.232H539.778V186.584C539.781 188.205 540.427 189.759 541.574 190.904C542.721 192.049 544.275 192.692 545.896 192.692C547.517 192.692 549.071 192.049 550.218 190.904C551.365 189.759 552.011 188.205 552.013 186.584V168.232H570.366C571.169 168.234 571.966 168.077 572.709 167.771C573.452 167.465 574.128 167.015 574.697 166.448C575.267 165.881 575.719 165.207 576.028 164.464C576.337 163.722 576.496 162.927 576.497 162.123C576.498 161.319 576.341 160.523 576.034 159.78C575.728 159.037 575.277 158.361 574.709 157.792C574.142 157.223 573.467 156.772 572.725 156.464C571.982 156.156 571.186 155.997 570.383 155.997H570.366Z" fill="white"/>
<path d="M94.096 468.477C92.7471 459.78 90.1156 451.332 86.2873 443.408L85.7292 442.254L81.5842 446.85L84.6555 440.004L84.4546 439.606C81.7444 434.241 78.7407 429.03 75.4572 423.995L74.8483 423.063L74.036 423.963L74.6047 422.695L74.32 422.268C70.2533 416.168 67.129 412.31 67.0981 412.272L66.2146 411.185L65.6463 412.481C65.5421 412.718 55.2159 436.513 53.8481 460.026L53.8264 460.393L60.7763 468.794L53.6887 464.344L53.701 465.959C53.7226 468.723 53.9106 471.482 54.2642 474.223C54.5763 476.581 54.9437 478.883 55.3663 481.129C56.0363 481.149 56.6879 481.353 57.2509 481.716C56.7613 479.207 56.3391 476.628 55.9842 473.979C55.7104 471.864 55.538 469.715 55.4693 467.573L69.1783 476.181L55.6024 459.77C56.8384 439.891 64.5103 419.862 66.6642 414.575C67.8201 416.074 70.0007 418.985 72.6093 422.873L67.8672 433.445L74.628 425.948C77.5592 430.511 80.2591 435.218 82.7177 440.052L75.4153 456.331L85.2886 445.383C88.7372 452.799 91.1242 460.663 92.3795 468.745C94.1075 481.798 93.7702 494.338 91.4295 504.054C89.1875 513.362 85.236 519.083 80.588 519.751C79.6314 519.883 78.6581 519.825 77.7239 519.581C76.9747 520.113 76.0732 520.388 75.1545 520.365H74.901C76.3428 521.165 77.959 521.599 79.6077 521.629C80.0151 521.629 80.422 521.6 80.8252 521.542C86.2897 520.757 90.6539 514.702 93.1129 504.495C95.5062 494.559 95.8567 481.775 94.096 468.477Z" fill="#E6E6E6"/>
<path d="M78.8019 520.943C71.6538 520.943 61.3475 517.011 51.1251 509.853C49.6205 508.791 48.1838 507.635 46.8233 506.394L45.6784 505.348L50.0073 504.102L44.2431 503.891L43.9999 503.635C33.1953 492.32 26.4718 476.336 26.4048 476.176L25.8794 474.914L27.2455 474.975C27.3816 474.981 30.6295 475.135 35.5111 475.827L35.8153 475.87V475.868L36.8857 476.031C40.8719 476.636 44.8208 477.466 48.7136 478.516L49.1293 478.629L50.4281 481.828L50.2311 478.959L51.4227 479.303C57.0703 480.933 62.4344 483.42 67.3279 486.677C82.8738 497.563 91.4757 511.169 86.9286 517.662C85.3742 519.882 82.5131 520.942 78.8019 520.943ZM49.1716 506.148C50.1213 506.953 51.1094 507.718 52.123 508.432C66.3612 518.403 81.6491 522.174 85.5064 516.667C89.3629 511.16 80.5897 498.083 66.3494 488.111C61.9561 485.188 57.1696 482.905 52.1336 481.329L52.9036 492.539L47.8458 480.081C44.5147 479.197 41.107 478.47 37.6954 477.915L38.2543 486.051L34.7733 477.476C32.0761 477.106 29.9019 476.905 28.5794 476.803C30.3824 480.762 36.3403 492.989 45.013 502.182L60.9203 502.764L49.1716 506.148Z" fill="#E6E6E6"/>
<path d="M180.189 289.438C180.183 288.114 179.887 286.808 179.321 285.611C178.756 284.415 177.935 283.356 176.916 282.511C175.897 281.666 174.706 281.055 173.425 280.72C172.145 280.386 170.806 280.336 169.504 280.574L153.653 252.576L147.113 265.982L162.261 291.768C162.807 293.928 164.126 295.814 165.969 297.067C167.812 298.32 170.05 298.853 172.26 298.566C174.47 298.279 176.498 297.191 177.959 295.508C179.42 293.826 180.214 291.666 180.189 289.438V289.438Z" fill="#A0616A"/>
<path d="M251.066 320.563C250.441 319.396 250.078 318.107 250.005 316.785C249.931 315.464 250.149 314.142 250.641 312.914C251.134 311.685 251.89 310.58 252.856 309.675C253.822 308.77 254.975 308.088 256.233 307.677L256.819 275.509L270.606 284.966L267.936 314.064C268.487 316.223 268.226 318.509 267.203 320.489C266.181 322.469 264.467 324.005 262.388 324.806C260.308 325.607 258.007 325.618 255.921 324.836C253.834 324.054 252.107 322.533 251.066 320.563H251.066Z" fill="#A0616A"/>
<path d="M155.066 285.598L166.414 274.959L160.59 217.51L167.328 136.302C152.691 140.902 136.976 153.259 134.388 168.381L125.128 222.475L155.066 285.598Z" fill="#E6E6E6"/>
<path opacity="0.2" d="M161.654 186.658L152.434 223.539L166.413 275.873L157.398 226.376L161.654 186.658Z" fill="black"/>
<path d="M252.94 305.457L271.38 307.584L267.062 170.652C266.87 164.534 264.919 158.6 261.443 153.561C257.968 148.522 253.115 144.59 247.464 142.235L240.883 139.493L242.656 203.68L252.94 305.457Z" fill="#E6E6E6"/>
<path opacity="0.2" d="M246.037 205.778L253.154 284.805L241.102 206.329L246.037 205.778Z" fill="black"/>
</svg>
