<svg width="922" height="705" viewBox="0 0 922 705" fill="none" xmlns="http://www.w3.org/2000/svg">
<g clip-path="url(#clip0_249:306)">
<path d="M829.165 65.8113H359.109C356.588 65.8113 354.545 67.8554 354.545 70.3769V700.434C354.545 702.956 356.588 705 359.109 705H829.165C831.686 705 833.729 702.956 833.729 700.434V70.3769C833.729 67.8554 831.686 65.8113 829.165 65.8113Z" fill="white"/>
<path d="M829.165 705H359.109C357.899 704.998 356.739 704.517 355.883 703.661C355.028 702.805 354.546 701.644 354.545 700.434V70.3767C354.546 69.1662 355.028 68.0057 355.883 67.1498C356.739 66.2939 357.899 65.8124 359.109 65.811H829.165C830.375 65.8124 831.535 66.2939 832.391 67.1498C833.246 68.0057 833.728 69.1662 833.729 70.3767V700.434C833.728 701.644 833.246 702.805 832.391 703.661C831.535 704.517 830.375 704.998 829.165 705ZM359.109 68.0939C358.504 68.0945 357.924 68.3352 357.496 68.7632C357.068 69.1912 356.827 69.7714 356.827 70.3767V700.434C356.827 701.039 357.068 701.62 357.496 702.047C357.924 702.475 358.504 702.716 359.109 702.717H829.165C829.77 702.716 830.35 702.475 830.778 702.047C831.206 701.62 831.447 701.039 831.447 700.434V70.3767C831.447 69.7714 831.206 69.1912 830.778 68.7632C830.35 68.3352 829.77 68.0945 829.165 68.0939H359.109Z" fill="#CACACA"/>
<path d="M761.848 208.912H426.419C424.15 208.912 421.973 208.01 420.369 206.405C418.764 204.799 417.862 202.622 417.862 200.351C417.862 198.081 418.764 195.904 420.369 194.298C421.973 192.693 424.15 191.791 426.419 191.791H761.848C764.118 191.791 766.294 192.693 767.899 194.298C769.503 195.904 770.405 198.081 770.405 200.351C770.405 202.622 769.503 204.799 767.899 206.405C766.294 208.01 764.118 208.912 761.848 208.912Z" fill="#E6E6E6"/>
<path d="M761.848 264.27H426.419C424.15 264.27 421.973 263.368 420.369 261.763C418.764 260.158 417.862 257.98 417.862 255.71C417.862 253.439 418.764 251.262 420.369 249.657C421.973 248.051 424.15 247.149 426.419 247.149H761.848C764.118 247.149 766.294 248.051 767.899 249.657C769.503 251.262 770.405 253.439 770.405 255.71C770.405 257.98 769.503 260.158 767.899 261.763C766.294 263.368 764.118 264.27 761.848 264.27Z" fill="#E6E6E6"/>
<path d="M761.848 319.628H426.419C424.15 319.628 421.973 318.727 420.369 317.121C418.764 315.516 417.862 313.338 417.862 311.068C417.862 308.797 418.764 306.62 420.369 305.015C421.973 303.409 424.15 302.507 426.419 302.507H761.848C764.118 302.507 766.294 303.409 767.899 305.015C769.503 306.62 770.405 308.797 770.405 311.068C770.405 313.338 769.503 315.516 767.899 317.121C766.294 318.727 764.118 319.628 761.848 319.628Z" fill="#E6E6E6"/>
<path d="M761.848 374.987H426.419C424.15 374.987 421.973 374.085 420.369 372.48C418.764 370.874 417.862 368.697 417.862 366.426C417.862 364.156 418.764 361.978 420.369 360.373C421.973 358.768 424.15 357.866 426.419 357.866H761.848C764.118 357.866 766.294 358.768 767.899 360.373C769.503 361.978 770.405 364.156 770.405 366.426C770.405 368.697 769.503 370.874 767.899 372.48C766.294 374.085 764.118 374.987 761.848 374.987Z" fill="#E6E6E6"/>
<path d="M761.848 430.345H426.419C424.15 430.345 421.973 429.443 420.369 427.838C418.764 426.233 417.862 424.055 417.862 421.785C417.862 419.514 418.764 417.337 420.369 415.731C421.973 414.126 424.15 413.224 426.419 413.224H761.848C764.118 413.224 766.294 414.126 767.899 415.731C769.503 417.337 770.405 419.514 770.405 421.785C770.405 424.055 769.503 426.233 767.899 427.838C766.294 429.443 764.118 430.345 761.848 430.345Z" fill="#E6E6E6"/>
<path d="M425.961 315.605C425.756 316.319 425.608 317.049 425.517 317.787L366.064 347.809L352.514 338.963L336.498 357.675L358.963 375.667C360.778 377.12 363.015 377.946 365.339 378.019C367.663 378.092 369.947 377.409 371.85 376.073L433.861 332.518C436.485 333.66 439.396 333.976 442.205 333.423C445.013 332.87 447.587 331.475 449.584 329.423C451.581 327.371 452.906 324.76 453.383 321.936C453.86 319.112 453.467 316.21 452.255 313.616C451.043 311.021 449.07 308.857 446.599 307.412C444.128 305.966 441.276 305.308 438.421 305.524C435.567 305.739 432.846 306.82 430.62 308.62C428.394 310.421 426.769 312.857 425.961 315.605L425.961 315.605Z" fill="#FFB6B6"/>
<path d="M364.114 348.943L344.405 372.256C343.845 372.919 343.148 373.454 342.362 373.824C341.576 374.193 340.719 374.389 339.851 374.397C338.983 374.406 338.123 374.227 337.33 373.873C336.537 373.519 335.829 372.999 335.255 372.346L315.153 349.495C311.775 346.606 309.681 342.494 309.329 338.062C308.977 333.63 310.397 329.24 313.277 325.854C316.156 322.468 320.261 320.362 324.69 320C329.119 319.637 333.511 321.047 336.903 323.919L362.685 339.9C363.423 340.358 364.053 340.97 364.534 341.694C365.014 342.417 365.333 343.236 365.469 344.094C365.605 344.952 365.554 345.829 365.32 346.666C365.086 347.503 364.675 348.279 364.114 348.943L364.114 348.943Z" fill="#00FF29"/>
<path d="M289.904 690.687H303.892L310.546 636.712H289.902L289.904 690.687Z" fill="#FFB6B6"/>
<path d="M286.336 686.118L313.882 686.117H313.883C318.539 686.117 323.004 687.967 326.296 691.261C329.588 694.554 331.438 699.021 331.438 703.679V704.25L286.337 704.251L286.336 686.118Z" fill="#2F2E41"/>
<path d="M286.753 540.379L290.73 553.794L344.347 544.831L338.476 525.031L286.753 540.379Z" fill="#FFB6B6"/>
<path d="M290.116 535.658L297.949 562.078L297.95 562.079C299.273 566.545 298.77 571.353 296.549 575.447C294.329 579.541 290.575 582.585 286.111 583.91L285.564 584.072L272.739 540.814L290.116 535.658Z" fill="#2F2E41"/>
<path d="M764.728 554.824H542.193C539.058 554.824 536.516 550.991 536.516 546.263C536.516 541.535 539.058 537.702 542.193 537.702H764.728C767.863 537.702 770.405 541.535 770.405 546.263C770.405 550.991 767.863 554.824 764.728 554.824Z" fill="#E6E6E6"/>
<path d="M764.728 603.904H542.193C539.058 603.904 536.516 600.071 536.516 595.343C536.516 590.616 539.058 586.783 542.193 586.783H764.728C767.863 586.783 770.405 590.616 770.405 595.343C770.405 600.071 767.863 603.904 764.728 603.904Z" fill="#E6E6E6"/>
<path d="M833.729 131.625C870.061 131.625 899.513 102.16 899.513 65.8125C899.513 29.4652 870.061 0 833.729 0C797.398 0 767.945 29.4652 767.945 65.8125C767.945 102.16 797.398 131.625 833.729 131.625Z" fill="#A3B78F"/>
<path d="M806.32 61.4682C805.168 61.4682 804.064 61.9257 803.25 62.7402C802.436 63.5547 801.979 64.6594 801.979 65.8112C801.979 66.9631 802.436 68.0677 803.25 68.8822C804.064 69.6967 805.168 70.1543 806.32 70.1543H829.389V93.2324C829.392 94.3824 829.85 95.4844 830.664 96.2966C831.478 97.1088 832.58 97.565 833.73 97.565C834.879 97.565 835.982 97.1088 836.795 96.2966C837.609 95.4844 838.068 94.3824 838.07 93.2324V70.1543H861.139C862.291 70.1543 863.395 69.6967 864.209 68.8822C865.023 68.0677 865.481 66.9631 865.481 65.8112C865.481 64.6594 865.023 63.5547 864.209 62.7402C863.395 61.9257 862.291 61.4682 861.139 61.4682H838.07V38.3889C838.07 37.2372 837.613 36.1327 836.799 35.3183C835.985 34.5039 834.881 34.0464 833.73 34.0464C832.578 34.0464 831.474 34.5039 830.66 35.3183C829.846 36.1327 829.389 37.2372 829.389 38.3889V61.4682H806.32Z" fill="white"/>
<path d="M431.254 512.777C429.235 516.143 426.386 518.933 422.978 520.88C419.571 522.827 415.721 523.865 411.797 523.895L327.73 550.82L323.886 528.516L374.79 500.883L325.472 465.348L361.605 423.047L427.233 484.241C431.068 487.818 433.559 492.603 434.291 497.797C435.023 502.991 433.951 508.279 431.254 512.777Z" fill="#2F2E41"/>
<path d="M309.327 665.313H288.57C269.934 537.511 250.964 409.352 307.021 361.516L373.136 372.284L364.68 428.429L327.779 470.729L309.327 665.313Z" fill="#2F2E41"/>
<path d="M369.094 395.44C341.112 414.516 304.965 410.031 289.878 381.606C311.555 345.081 316.119 318.829 298.669 306.844C295.872 296.868 296.916 286.206 301.594 276.963C306.271 267.72 314.243 260.567 323.934 256.916L356.991 270.76C385.058 293.65 390.586 318.444 380.055 344.595L369.094 395.44Z" fill="#A3B78F"/>
<path d="M923 702.717H0V705H923V702.717Z" fill="#CACACA"/>
<path d="M174.949 650.667C179.194 652.159 183.751 652.534 188.182 651.753C192.614 650.972 196.769 649.062 200.249 646.208C209.11 638.767 211.886 626.509 214.148 615.162L220.834 581.589L206.837 591.228C196.771 598.163 186.477 605.32 179.507 615.364C172.537 625.408 169.494 639.12 175.095 649.989" fill="#E6E6E6"/>
<path d="M177.111 693.649C175.345 680.807 173.537 667.802 174.774 654.82C175.872 643.292 179.387 632.034 186.544 622.803C190.343 617.912 194.965 613.721 200.203 610.42C201.572 609.557 202.827 611.723 201.466 612.581C192.403 618.312 185.393 626.774 181.447 636.747C177.088 647.838 176.388 659.928 177.14 671.711C177.596 678.835 178.557 685.914 179.526 692.983C179.603 693.303 179.555 693.64 179.393 693.926C179.231 694.211 178.966 694.425 178.652 694.523C178.333 694.61 177.991 694.567 177.703 694.403C177.414 694.24 177.202 693.968 177.113 693.649H177.111Z" fill="#F2F2F2"/>
<path d="M64.8301 674.466C66.992 677.021 69.7752 678.976 72.9116 680.142C76.0479 681.308 79.4317 681.647 82.7367 681.125C91.2183 679.686 97.6097 672.867 103.327 666.436L120.241 647.415L107.635 648.333C98.5704 648.994 89.2753 649.712 81.0276 653.534C72.78 657.355 65.6732 665.006 65.1803 674.086" fill="#E6E6E6"/>
<path d="M50.3177 700.993C53.2898 693.836 56.287 686.579 60.8472 680.259C64.759 674.532 70.2203 670.039 76.5919 667.305C80.0293 665.932 83.6798 665.169 87.3792 665.051C88.3444 665.019 88.3387 666.516 87.3792 666.548C80.9723 666.762 74.7987 669.006 69.7487 672.956C64.1479 677.359 60.133 683.382 56.959 689.686C55.04 693.498 53.3971 697.441 51.761 701.38C51.7039 701.567 51.578 701.726 51.4087 701.824C51.2394 701.922 51.0391 701.953 50.8483 701.909C50.6571 701.857 50.4941 701.731 50.3948 701.56C50.2955 701.388 50.2678 701.184 50.3177 700.993Z" fill="#F2F2F2"/>
<path d="M189.792 673.044C191.613 675.812 194.115 678.064 197.059 679.584C200.002 681.103 203.287 681.838 206.597 681.719C215.104 681.315 222.196 675.375 228.579 669.734L247.461 653.056L234.965 652.458C225.978 652.027 216.759 651.625 208.199 654.398C199.639 657.17 191.745 663.843 190.179 672.707" fill="#E6E6E6"/>
<path d="M172.13 701.031C180.611 686.016 190.451 669.329 208.03 663.995C212.918 662.517 218.043 661.987 223.13 662.435C224.733 662.573 224.332 665.045 222.733 664.907C214.206 664.199 205.696 666.451 198.636 671.285C191.841 675.913 186.551 682.344 182.073 689.166C179.335 693.345 176.874 697.701 174.416 702.051C173.631 703.441 171.336 702.438 172.13 701.031Z" fill="#F2F2F2"/>
<path d="M900.891 677.63C897.616 678.782 894.099 679.071 890.679 678.468C887.26 677.866 884.053 676.392 881.368 674.19C874.529 668.448 872.385 658.988 870.643 650.228L865.483 624.318L876.286 631.76C884.055 637.112 891.999 642.635 897.377 650.386C902.755 658.137 905.105 668.719 900.783 677.106" fill="#E6E6E6"/>
<path d="M897.909 702.223C898.859 695.298 899.836 688.284 899.17 681.286C898.736 675.045 896.535 669.056 892.823 664.021C890.774 661.384 888.282 659.124 885.457 657.344C884.72 656.879 884.042 658.047 884.772 658.509C889.66 661.6 893.44 666.163 895.568 671.541C897.918 677.522 898.296 684.04 897.891 690.394C897.645 694.235 897.126 698.052 896.604 701.864C896.563 702.036 896.588 702.217 896.676 702.371C896.763 702.525 896.906 702.64 897.075 702.693C897.247 702.738 897.431 702.715 897.586 702.626C897.741 702.538 897.856 702.393 897.905 702.222L897.909 702.223Z" fill="#F2F2F2"/>
<path d="M265.799 417.979C267.544 417.573 269.18 416.79 270.59 415.684C272 414.578 273.15 413.176 273.96 411.577C274.77 409.978 275.219 408.22 275.277 406.429C275.334 404.637 274.998 402.854 274.293 401.207L319.476 299.082L293.629 292.57L257.343 395.002C254.654 396.372 252.561 398.68 251.461 401.49C250.36 404.3 250.327 407.416 251.37 410.248C252.412 413.08 254.457 415.432 257.116 416.857C259.775 418.281 262.865 418.681 265.799 417.979V417.979Z" fill="#FFB6B6"/>
<path d="M313.359 317.347L288.22 305.575C287.505 305.24 286.87 304.754 286.36 304.152C285.849 303.549 285.474 302.844 285.26 302.083C285.046 301.323 284.999 300.525 285.121 299.744C285.243 298.964 285.532 298.219 285.968 297.56L301.245 274.478C302.981 270.829 306.091 268.017 309.894 266.658C313.698 265.299 317.885 265.504 321.538 267.228C325.191 268.952 328.012 272.054 329.383 275.854C330.754 279.655 330.564 283.845 328.853 287.505L320.953 313.943C320.727 314.7 320.34 315.399 319.819 315.993C319.298 316.587 318.656 317.062 317.935 317.385C317.214 317.708 316.432 317.871 315.643 317.865C314.853 317.858 314.074 317.682 313.359 317.347H313.359Z" fill="#A3B78F"/>
<path d="M369.12 249.397H302.947C301.585 249.395 300.28 248.854 299.318 247.891C298.355 246.928 297.814 245.622 297.812 244.261V215.725C297.812 205.584 301.839 195.859 309.007 188.688C316.175 181.517 325.896 177.488 336.033 177.488C346.17 177.488 355.891 181.517 363.059 188.688C370.227 195.859 374.254 205.584 374.254 215.725V244.261C374.252 245.622 373.711 246.928 372.748 247.891C371.786 248.854 370.481 249.395 369.12 249.397Z" fill="#2F2E41"/>
<path d="M345.466 248.963C360.942 248.963 373.488 236.412 373.488 220.929C373.488 205.446 360.942 192.895 345.466 192.895C329.99 192.895 317.444 205.446 317.444 220.929C317.444 236.412 329.99 248.963 345.466 248.963Z" fill="#FFB6B6"/>
<path d="M383.296 218.579H342.832L342.417 212.767L340.343 218.579H334.112L333.29 207.06L329.178 218.579H317.123V218.008C317.132 209.989 320.32 202.3 325.988 196.63C331.656 190.959 339.341 187.77 347.357 187.761H353.061C361.077 187.77 368.762 190.959 374.43 196.63C380.098 202.3 383.287 209.989 383.296 218.008V218.579Z" fill="#2F2E41"/>
</g>
<defs>
<clipPath id="clip0_249:306">
<rect width="923" height="705" fill="white"/>
</clipPath>
</defs>
</svg>
