<svg width="766" height="566" viewBox="0 0 766 566" fill="none" xmlns="http://www.w3.org/2000/svg">
<g clip-path="url(#clip0_249:436)">
<path d="M42.9421 564.349C31.125 563.22 20.6919 553.293 14.7588 541.373C12.7691 537.375 11.4058 532.132 13.659 528.327C14.3039 527.239 15.1952 526.378 16.2347 525.839C17.2741 525.301 18.4214 525.106 19.55 525.277C20.6786 525.447 21.7449 525.976 22.6312 526.805C23.5175 527.634 24.1896 528.731 24.5733 529.975C23.8475 525.305 23.5357 520.561 23.6426 515.817C23.7334 511.801 24.387 507.26 27.2632 505.026C30.6 502.435 35.4097 504.492 37.8367 508.205C40.2638 511.917 40.9224 516.747 41.5049 521.359C41.0293 519.407 40.983 517.347 41.37 515.369C41.7571 513.391 42.5652 511.557 43.7205 510.035C44.8757 508.514 46.3412 507.353 47.9828 506.658C49.6244 505.964 51.3898 505.759 53.1172 506.062C58.0045 506.919 61.833 511.833 63.327 517.303C64.8209 522.774 64.3545 528.706 63.393 534.336C62.2655 540.937 60.4357 547.485 57.1415 553.022C53.8472 558.559 48.9541 563.023 43.277 564.377L42.9421 564.349Z" fill="#F2F2F2"/>
<path d="M766 118.723C766 143.345 759.41 167.359 747.14 187.441C734.871 207.523 717.529 222.68 697.514 230.815C696.878 231.073 696.232 231.331 695.585 231.566V110.928H561.729C561.768 110.177 561.816 109.427 561.874 108.688H695.585V85.1223C695.585 83.6372 695.076 82.2131 694.172 81.163C693.268 80.1129 692.041 79.5227 690.762 79.5221H567.218C567.44 78.7717 567.671 78.0213 567.922 77.2821C576.292 51.197 592.288 29.3557 613.117 15.5738C633.946 1.79197 658.283 -3.05423 681.877 1.88188C705.47 6.81799 726.82 21.2226 742.196 42.5792C757.573 63.9357 765.998 90.8865 766 118.723Z" fill="#F2F2F2"/>
<path d="M690.762 77.2817H221.008C219.218 77.284 217.502 78.1108 216.236 79.5806C214.97 81.0504 214.258 83.0433 214.256 85.1219V454.731C214.258 456.809 214.97 458.802 216.236 460.272C217.502 461.742 219.218 462.569 221.008 462.571H690.762C692.552 462.569 694.269 461.742 695.534 460.272C696.8 458.802 697.512 456.809 697.514 454.731V85.1219C697.512 83.0433 696.8 81.0504 695.534 79.5806C694.269 78.1108 692.552 77.284 690.762 77.2817ZM695.585 454.731C695.585 456.216 695.076 457.64 694.172 458.69C693.267 459.74 692.041 460.33 690.762 460.331H221.008C219.729 460.33 218.503 459.74 217.598 458.69C216.694 457.64 216.186 456.216 216.185 454.731V85.1219C216.186 83.6369 216.694 82.2128 217.598 81.1627C218.503 80.1126 219.729 79.5224 221.008 79.5218H690.762C692.041 79.5224 693.267 80.1126 694.172 81.1627C695.076 82.2128 695.585 83.6369 695.585 85.1219V454.731Z" fill="#3F3D56"/>
<path d="M696.55 108.688H215.221V110.928H696.55V108.688Z" fill="#3F3D56"/>
<path d="M231.619 100.803C234.815 100.803 237.406 97.7939 237.406 94.0825C237.406 90.371 234.815 87.3623 231.619 87.3623C228.422 87.3623 225.831 90.371 225.831 94.0825C225.831 97.7939 228.422 100.803 231.619 100.803Z" fill="#3F3D56"/>
<path d="M248.258 100.803C251.454 100.803 254.045 97.7939 254.045 94.0825C254.045 90.371 251.454 87.3623 248.258 87.3623C245.061 87.3623 242.47 90.371 242.47 94.0825C242.47 97.7939 245.061 100.803 248.258 100.803Z" fill="#3F3D56"/>
<path d="M264.897 100.803C268.093 100.803 270.684 97.7939 270.684 94.0825C270.684 90.371 268.093 87.3623 264.897 87.3623C261.701 87.3623 259.109 90.371 259.109 94.0825C259.109 97.7939 261.701 100.803 264.897 100.803Z" fill="#3F3D56"/>
<path d="M346.404 154.563H261.521C259.731 154.566 258.014 155.393 256.748 156.862C255.483 158.332 254.771 160.325 254.769 162.404V260.966C254.771 263.045 255.483 265.037 256.748 266.507C258.014 267.977 259.731 268.804 261.521 268.806H346.404C348.195 268.804 349.911 267.977 351.177 266.507C352.442 265.037 353.154 263.045 353.156 260.966V162.404C353.154 160.325 352.442 158.332 351.177 156.862C349.911 155.393 348.195 154.566 346.404 154.563ZM351.227 260.966C351.227 262.451 350.718 263.875 349.814 264.925C348.91 265.975 347.683 266.566 346.404 266.566H261.521C260.242 266.566 259.015 265.975 258.111 264.925C257.207 263.875 256.698 262.451 256.698 260.966V162.404C256.698 160.919 257.207 159.495 258.111 158.444C259.015 157.394 260.242 156.804 261.521 156.804H346.404C347.683 156.804 348.91 157.394 349.814 158.444C350.718 159.495 351.227 160.919 351.227 162.404V260.966Z" fill="#3F3D56"/>
<path d="M498.809 155.124H413.926C412.264 155.127 410.671 155.895 409.496 157.26C408.321 158.624 407.659 160.474 407.656 162.404V260.966C407.659 262.896 408.321 264.745 409.496 266.11C410.671 267.474 412.264 268.243 413.926 268.246H498.809C500.471 268.243 502.064 267.474 503.239 266.11C504.414 264.745 505.076 262.896 505.079 260.966V162.404C505.076 160.474 504.414 158.624 503.239 157.26C502.064 155.895 500.471 155.127 498.809 155.124Z" fill="#667C50"/>
<path d="M651.214 155.124H566.33C564.668 155.127 563.076 155.895 561.9 157.26C560.725 158.624 560.064 160.474 560.061 162.404V260.966C560.064 262.896 560.725 264.745 561.9 266.11C563.076 267.474 564.668 268.243 566.33 268.246H651.214C652.876 268.243 654.469 267.474 655.644 266.11C656.819 264.745 657.481 262.896 657.484 260.966V162.404C657.481 160.474 656.819 158.624 655.644 157.26C654.469 155.895 652.876 155.127 651.214 155.124Z" fill="#E6E6E6"/>
<path d="M346.405 302.967H261.521C259.859 302.971 258.266 303.739 257.091 305.104C255.916 306.468 255.254 308.318 255.251 310.247V408.81C255.254 410.739 255.916 412.589 257.091 413.954C258.266 415.318 259.859 416.086 261.521 416.09H346.405C348.066 416.086 349.659 415.318 350.834 413.954C352.01 412.589 352.671 410.739 352.674 408.81V310.247C352.671 308.318 352.01 306.468 350.834 305.104C349.659 303.739 348.066 302.971 346.405 302.967Z" fill="#E6E6E6"/>
<path d="M498.809 302.967H413.926C412.264 302.971 410.671 303.739 409.496 305.104C408.321 306.468 407.659 308.318 407.656 310.247V408.81C407.659 410.739 408.321 412.589 409.496 413.954C410.671 415.318 412.264 416.086 413.926 416.09H498.809C500.471 416.086 502.064 415.318 503.239 413.954C504.414 412.589 505.076 410.739 505.079 408.81V310.247C505.076 308.318 504.414 306.468 503.239 305.104C502.064 303.739 500.471 302.971 498.809 302.967Z" fill="#323232"/>
<path d="M651.214 302.967H566.33C564.668 302.971 563.076 303.739 561.9 305.104C560.725 306.468 560.064 308.318 560.061 310.247V408.81C560.064 410.739 560.725 412.589 561.9 413.954C563.076 415.318 564.668 416.086 566.33 416.09H651.214C652.876 416.086 654.469 415.318 655.644 413.954C656.819 412.589 657.481 410.739 657.484 408.81V310.247C657.481 308.318 656.819 306.468 655.644 305.104C654.469 303.739 652.876 302.971 651.214 302.967Z" fill="#E6E6E6"/>
<path d="M325.666 319.208H240.782C239.12 319.205 237.526 318.438 236.351 317.073C235.175 315.708 234.514 313.858 234.512 311.927V213.365C234.514 211.435 235.175 209.585 236.351 208.22C237.526 206.855 239.12 206.087 240.782 206.085H325.666C327.328 206.087 328.922 206.855 330.097 208.22C331.272 209.585 331.934 211.435 331.936 213.365V311.927C331.934 313.858 331.272 315.708 330.097 317.073C328.922 318.438 327.328 319.205 325.666 319.208Z" fill="#A3B78F"/>
<path d="M195.566 551.151L206.871 547.123L198.869 494.573L182.184 500.518L195.566 551.151Z" fill="#A0616A"/>
<path d="M231.896 551.543L196.365 564.204L192.152 548.264L213.955 540.495C215.758 539.853 217.652 539.629 219.529 539.836C221.407 540.044 223.23 540.679 224.896 541.705C226.562 542.73 228.038 544.127 229.239 545.815C230.44 547.503 231.343 549.45 231.896 551.543Z" fill="#2F2E41"/>
<path d="M99.1093 551.454L110.935 551.453L116.561 498.489L99.1074 498.49L99.1093 551.454Z" fill="#A0616A"/>
<path d="M133.742 564.203L96.5759 564.205L96.5753 547.531L119.382 547.53C121.268 547.529 123.135 547.961 124.877 548.798C126.619 549.636 128.202 550.864 129.536 552.413C130.869 553.961 131.927 555.799 132.649 557.822C133.371 559.845 133.742 562.013 133.742 564.203L133.742 564.203Z" fill="#2F2E41"/>
<path d="M98.2609 397.923C97.2893 396.934 96.5163 395.71 95.9964 394.337C95.4764 392.963 95.222 391.474 95.2513 389.975C95.2805 388.475 95.5926 387.001 96.1656 385.656C96.7386 384.311 97.5585 383.129 98.5676 382.192L107.736 248.131L126.383 253.54L111.453 384.313C112.696 386.386 113.241 388.916 112.985 391.424C112.729 393.932 111.69 396.244 110.063 397.922C108.437 399.6 106.338 400.526 104.162 400.527C101.987 400.527 99.8873 399.601 98.2609 397.923Z" fill="#A0616A"/>
<path d="M135.601 196.135C148.685 196.135 159.292 183.819 159.292 168.626C159.292 153.433 148.685 141.117 135.601 141.117C122.517 141.117 111.91 153.433 111.91 168.626C111.91 183.819 122.517 196.135 135.601 196.135Z" fill="#A0616A"/>
<path d="M115.001 244.008C109.655 235.486 109.49 223.75 115.249 215.599C119.006 210.28 125.292 206.023 135.787 206.023C163.76 206.023 174.37 231.784 174.37 231.784C174.37 231.784 185.946 256.425 179.193 278.825C172.441 301.226 172.441 303.466 172.441 303.466L128.07 298.986C128.07 298.986 135.556 276.774 115.001 244.008Z" fill="#CCCCCC"/>
<path d="M101.318 266.305L110.877 229.993C111.517 227.562 112.609 225.323 114.076 223.436C115.544 221.548 117.35 220.058 119.368 219.071C121.385 218.083 123.565 217.622 125.753 217.72C127.941 217.818 130.084 218.473 132.03 219.638C135.407 221.669 137.992 225.114 139.261 229.276C140.531 233.438 140.39 238.004 138.867 242.05L126.715 274.185L101.318 266.305Z" fill="#CCCCCC"/>
<path d="M171.477 297.865L209.096 524.111L188.839 530.831L139.645 381.867L117.46 534.191L96.239 537.551C96.239 537.551 86.9304 336.008 128.07 298.985L171.477 297.865Z" fill="#2F2E41"/>
<path d="M225.62 287.262C225.277 287.736 224.967 288.242 224.692 288.773L176.911 291.463L167.71 258.848L151.735 267.664L166.771 316.241L225.863 302.823C227.252 304.583 229.069 305.811 231.073 306.342C233.077 306.874 235.173 306.685 237.083 305.8C238.992 304.915 240.624 303.376 241.762 301.388C242.899 299.399 243.489 297.056 243.451 294.669C243.414 292.282 242.752 289.966 241.553 288.026C240.354 286.087 238.675 284.618 236.739 283.814C234.804 283.01 232.703 282.909 230.717 283.525C228.731 284.141 226.953 285.444 225.62 287.262Z" fill="#A0616A"/>
<path d="M145.05 235.037C144.794 232.512 145.019 229.952 145.708 227.539C146.398 225.126 147.536 222.918 149.042 221.072C150.547 219.225 152.383 217.785 154.421 216.854C156.458 215.922 158.647 215.522 160.833 215.68C164.627 215.963 168.187 217.911 170.791 221.129C173.394 224.347 174.846 228.594 174.853 233.009V268.105L148.87 272.747L145.05 235.037Z" fill="#CCCCCC"/>
<path d="M140.811 196.384C137.255 196.367 134.512 192.02 134.672 187.895C134.831 183.77 137.217 180.141 140.091 177.71C142.966 175.28 146.337 173.799 149.542 172.012C152.748 170.225 155.926 167.996 157.905 164.566C159.1 162.321 159.814 159.775 159.986 157.143C160.158 154.511 159.782 151.87 158.892 149.441C157.05 144.584 153.888 140.561 149.889 137.99C143.949 133.953 136.918 132.662 130.195 134.374C123.473 136.087 117.553 140.677 113.614 147.23L109.555 160.063C105.419 165.838 104.763 174.415 107.305 181.321C109.848 188.228 115.261 193.424 121.37 195.894C127.568 198.207 134.202 198.438 140.508 196.561" fill="#2F2E41"/>
<path d="M119.159 153.644C117.415 150.396 114.39 148.331 111.263 147.119C107.641 145.715 103.789 145.3 100.006 145.908C96.2233 146.516 92.6123 148.129 89.4543 150.622C86.2964 153.115 83.6766 156.421 81.799 160.282C79.9213 164.143 78.8366 168.455 78.6291 172.883C78.2977 179.955 80.2049 186.871 81.3256 193.833C82.4462 200.795 82.6691 208.485 79.3631 214.437C76.8451 218.971 72.6459 221.825 68.5011 224.263C65.0466 226.294 61.31 228.2 57.4535 227.796C53.5971 227.391 49.721 223.844 49.8233 219.349C48.5323 222.572 47.6606 226 47.2367 229.52C46.9654 233.054 47.7157 236.868 49.9144 239.333C53.1102 242.916 58.1737 242.654 62.5656 241.881C72.0735 240.207 81.7013 237.07 89.2129 230.098C96.7244 223.125 101.709 211.645 99.7306 200.718C98.9043 196.153 96.9623 191.986 95.3931 187.692C93.8239 183.398 92.5988 178.702 93.3196 174.113C93.7463 171.749 94.6147 169.523 95.8635 167.591C97.1123 165.659 98.711 164.069 100.547 162.933C104.26 160.692 108.508 159.944 112.626 160.806C115.326 161.321 118.697 162.12 120.299 159.544C120.723 158.728 120.94 157.789 120.924 156.836C120.908 155.882 120.66 154.954 120.208 154.158C119.284 152.583 118.108 151.229 116.743 150.171" fill="#2F2E41"/>
<path d="M297.56 566H1.14845C0.997341 566.001 0.847624 565.967 0.707895 565.9C0.568165 565.833 0.441167 565.735 0.334164 565.611C0.227161 565.487 0.14226 565.34 0.0843334 565.178C0.0264063 565.016 -0.00341797 564.842 -0.00341797 564.667C-0.00341797 564.491 0.0264063 564.317 0.0843334 564.155C0.14226 563.993 0.227161 563.846 0.334164 563.722C0.441167 563.598 0.568165 563.5 0.707895 563.433C0.847624 563.367 0.997341 563.333 1.14845 563.333H297.56C297.712 563.333 297.861 563.367 298.001 563.433C298.141 563.5 298.268 563.598 298.375 563.722C298.482 563.846 298.567 563.993 298.624 564.155C298.682 564.317 298.712 564.491 298.712 564.667C298.712 564.842 298.682 565.016 298.624 565.178C298.567 565.34 298.482 565.487 298.375 565.611C298.268 565.735 298.141 565.833 298.001 565.9C297.861 565.967 297.712 566.001 297.56 566Z" fill="#3F3D56"/>
</g>
<defs>
<clipPath id="clip0_249:436">
<rect width="766" height="566" fill="white"/>
</clipPath>
</defs>
</svg>
