<svg width="806" height="773" viewBox="0 0 806 773" fill="none" xmlns="http://www.w3.org/2000/svg">
<g clip-path="url(#clip0_249:578)">
<path d="M782.166 238.154C780.454 105.608 712.809 -1 629.604 -1C579.601 -1 535.217 37.5011 507.384 96.9941L540.108 179.07L494.883 128.481C483.476 162.711 477.002 201.792 477.002 243.299C476.909 274.76 480.785 306.108 488.537 336.6L576.236 322.467L497.751 366.338C523.32 436.411 570.054 484.27 623.922 487.427L613.541 769.746L645.667 770.893L638.8 487.144C715.508 479.842 776.954 381.84 781.877 259.195L728.867 229.565L782.166 238.154Z" fill="#F0F0F0"/>
<path d="M189.562 409.19H181.937V466.057H189.562V409.19Z" fill="#A3B78F"/>
<path d="M216.934 434.446L211.349 439.645L185.757 412.116L160.155 439.645L154.571 434.446L185.757 400.925L216.934 434.446Z" fill="#A3B78F"/>
<path d="M183.637 494.64C171.572 494.64 159.778 491.063 149.747 484.363C139.716 477.663 131.897 468.14 127.28 456.998C122.663 445.856 121.455 433.595 123.809 421.767C126.163 409.939 131.972 399.074 140.503 390.546C149.034 382.018 159.903 376.211 171.736 373.858C183.569 371.505 195.834 372.713 206.98 377.328C218.127 381.943 227.654 389.759 234.356 399.786C241.059 409.814 244.637 421.603 244.637 433.663C244.619 449.829 238.186 465.328 226.75 476.76C215.314 488.191 199.809 494.621 183.637 494.64ZM183.637 380.309C173.08 380.309 162.761 383.438 153.983 389.3C145.206 395.163 138.365 403.496 134.325 413.245C130.285 422.994 129.228 433.722 131.287 444.072C133.347 454.422 138.43 463.929 145.895 471.39C153.36 478.852 162.87 483.934 173.224 485.992C183.578 488.051 194.309 486.994 204.062 482.956C213.815 478.918 222.152 472.079 228.016 463.305C233.881 454.531 237.012 444.216 237.012 433.663C236.996 419.517 231.367 405.956 221.361 395.953C211.355 385.951 197.788 380.325 183.637 380.309Z" fill="#A3B78F"/>
<path d="M249.941 293.188H245.737V324.541H249.941V293.188Z" fill="#A3B78F"/>
<path d="M265.033 307.113L261.955 309.979L247.844 294.8L233.729 309.979L230.65 307.113L247.844 288.63L265.033 307.113Z" fill="#A3B78F"/>
<path d="M246.675 340.3C240.023 340.3 233.521 338.329 227.99 334.635C222.459 330.94 218.148 325.69 215.603 319.547C213.057 313.403 212.391 306.644 213.689 300.122C214.986 293.601 218.19 287.61 222.893 282.908C227.597 278.207 233.59 275.005 240.114 273.708C246.638 272.41 253.4 273.076 259.545 275.621C265.691 278.165 270.944 282.474 274.639 288.003C278.335 293.532 280.307 300.032 280.307 306.681C280.297 315.594 276.751 324.14 270.446 330.442C264.14 336.745 255.592 340.29 246.675 340.3ZM246.675 277.264C240.855 277.264 235.165 278.989 230.325 282.222C225.486 285.454 221.714 290.048 219.487 295.424C217.259 300.799 216.677 306.714 217.812 312.42C218.948 318.126 221.75 323.368 225.866 327.482C229.982 331.596 235.225 334.398 240.934 335.533C246.642 336.668 252.559 336.085 257.937 333.859C263.314 331.632 267.91 327.862 271.144 323.024C274.377 318.187 276.103 312.499 276.103 306.681C276.094 298.882 272.991 291.405 267.474 285.89C261.957 280.375 254.477 277.273 246.675 277.264Z" fill="#A3B78F"/>
<path d="M119.157 215.607H114.953V246.961H119.157V215.607Z" fill="#A3B78F"/>
<path d="M134.249 229.532L131.17 232.399L117.059 217.221L102.944 232.399L99.8647 229.532L117.059 211.051L134.249 229.532Z" fill="#A3B78F"/>
<path d="M115.89 262.719C109.238 262.719 102.736 260.748 97.2051 257.053C91.6742 253.359 87.3635 248.109 84.8179 241.966C82.2724 235.822 81.6064 229.063 82.9041 222.541C84.2018 216.02 87.4049 210.029 92.1085 205.327C96.8121 200.626 102.805 197.424 109.329 196.126C115.853 194.829 122.615 195.495 128.761 198.04C134.906 200.584 140.159 204.893 143.855 210.422C147.55 215.951 149.523 222.451 149.523 229.1C149.513 238.013 145.966 246.559 139.661 252.861C133.356 259.164 124.807 262.709 115.89 262.719ZM115.89 199.683C110.07 199.683 104.38 201.408 99.5407 204.641C94.7013 207.873 90.9294 212.467 88.702 217.843C86.4747 223.218 85.8919 229.133 87.0274 234.839C88.1629 240.545 90.9657 245.787 95.0813 249.901C99.1969 254.015 104.441 256.817 110.149 257.952C115.858 259.087 121.775 258.504 127.152 256.278C132.529 254.051 137.125 250.281 140.359 245.443C143.593 240.606 145.319 234.918 145.319 229.1C145.31 221.301 142.206 213.824 136.69 208.309C131.173 202.794 123.692 199.692 115.89 199.683Z" fill="#A3B78F"/>
<path d="M353.133 601.161C352.194 600.194 351.472 599.039 351.014 597.771C350.556 596.504 350.374 595.153 350.478 593.81C350.583 592.466 350.973 591.16 351.621 589.979C352.27 588.797 353.162 587.767 354.24 586.957C354.699 586.598 355.186 586.276 355.696 585.993L347.618 551.2L366.405 557.943L371.196 589.95C372.322 591.952 372.683 594.294 372.212 596.542C371.742 598.79 370.472 600.792 368.638 602.175C366.377 603.932 363.55 604.799 360.693 604.612C357.835 604.425 355.146 603.198 353.133 601.161Z" fill="#FFB8B8"/>
<path d="M350.999 574.014L350.898 573.672C340.742 539.26 330.244 503.686 317.427 464.953L317.343 464.699L317.626 464.548C324.77 460.729 335.507 460.983 342.602 465.139C349.166 468.984 352.484 476.421 350.69 483.247L360.038 527.899C363.839 542.495 367.772 557.603 371.531 572.5L371.638 572.922L371.056 572.956C364.211 573.355 357.14 573.767 351.474 573.995L350.999 574.014Z" fill="#CCCCCC"/>
<path d="M264.689 759.226H251.368L245.028 712.154H264.689V759.226Z" fill="#FFB8B8"/>
<path d="M268.086 771.055H225.133V770.557C225.133 762.112 232.634 755.241 241.852 755.241H268.086V771.055Z" fill="#2F2E41"/>
<path d="M390.215 749.159L377.522 752.864L355.882 709.778L374.615 704.309L390.215 749.159Z" fill="#FFB8B8"/>
<path d="M356.447 771.431L356.282 770.957C353.483 762.91 358.353 754.278 367.136 751.714L392.132 744.417L397.373 759.484L356.447 771.431Z" fill="#2F2E41"/>
<path d="M322.791 433.418C337.53 433.418 349.478 422.472 349.478 408.969C349.478 395.466 337.53 384.521 322.791 384.521C308.052 384.521 296.104 395.466 296.104 408.969C296.104 422.472 308.052 433.418 322.791 433.418Z" fill="#FFB8B8"/>
<path d="M334.773 404.438C334.925 394.577 330.42 384.811 323.455 379.901C320.088 377.508 316.044 376.254 311.913 376.321C307.782 376.388 303.781 377.772 300.493 380.273C293.636 385.407 289.342 395.315 289.705 405.168C305.07 405.208 320.435 405.248 334.773 404.438Z" fill="#2F2E41"/>
<path d="M272.294 744.073L271.76 744.026C260.17 742.984 248.187 741.908 236.861 741.784L236.245 741.777L236.329 741.218C239.013 723.415 240.15 704.906 241.25 687.006C242.336 669.331 243.459 651.055 246.076 633.698C247.182 629.05 248.261 624.457 249.336 619.881C258.23 582.012 266.631 546.243 283.972 510.836L284.136 510.502L284.533 510.546C300.804 512.349 316.439 517.788 328.556 525.859L328.791 526.015L328.78 526.28C328.446 531.729 328.407 537.191 328.662 542.644C334.115 549.434 337.765 557.49 339.276 566.065C340.787 574.64 340.109 583.458 337.305 591.702C342.076 606.31 347.009 621.41 352.042 636.306C364.264 667.003 376.912 698.77 389.876 730.971L390.089 731.499L389.491 731.628C380.163 733.634 370.54 735.703 361.048 736.506L360.689 736.536L360.519 736.245C336.445 695.269 316.746 651.877 301.748 606.785C298.508 615.835 293.841 624.005 289.32 631.918C285.014 639.08 281.209 646.531 277.931 654.217C275.93 669.269 275.399 685.577 274.886 701.347C274.401 716.258 273.943 730.342 272.353 743.584L272.294 744.073Z" fill="#2F2E41"/>
<path d="M313.68 380.353C325.248 378.07 338.043 380.242 347.128 387.392C356.213 394.542 360.826 406.912 357.094 417.52C353.362 428.128 340.691 435.592 329.234 432.852C332.516 424.379 328.823 413.976 320.8 409.095C311.286 403.307 308.667 389.488 313.68 380.353Z" fill="#2F2E41"/>
<path d="M327.725 526.922L327.302 526.746C312.544 520.578 298.074 515.845 284.517 511.527L284.101 511.445L284.1 510.341L284.37 510.427C284.427 510.312 284.491 510.182 284.555 510.052C284.74 509.677 284.866 509.421 284.974 509.252L284.971 509.251C286.101 507.141 287 505.102 287.868 503.13C288.765 501.095 289.691 498.994 290.886 496.77C288.026 494.244 286.037 490.879 285.203 487.156C284.368 483.433 284.731 479.542 286.24 476.037C289.235 469.534 296.871 464.47 304.895 463.629C307.835 456.215 314.386 440.635 314.386 440.635C314.386 440.635 328.162 440.289 333.702 439.645L333.795 439.634L333.886 439.652C345.981 442.08 356.078 452.565 358.441 465.149C360.435 475.77 357.407 487.918 349.914 499.357C346.046 504.981 341.794 510.332 337.191 515.372C333.816 519.238 330.628 522.889 327.981 526.567L327.725 526.922Z" fill="#CCCCCC"/>
<path d="M354.436 394.841C346.339 393.734 339.981 386.15 340.901 378.697C341.822 371.244 349.868 365.154 358.031 365.732C366.194 366.31 373.124 373.461 372.783 380.955C372.442 388.449 364.775 396.255 354.436 394.841Z" fill="#2F2E41"/>
<path d="M353.172 390.009C345.074 388.901 338.717 381.318 339.637 373.865C340.267 368.767 344.233 364.309 349.288 362.185C342.758 363.494 337.137 368.707 336.377 374.861C335.457 382.314 341.815 389.897 349.912 391.004C352.921 391.439 355.991 391.046 358.792 389.866C356.939 390.222 355.04 390.27 353.172 390.009Z" fill="#2F2E41"/>
<path d="M196.098 521.382C197.688 519.012 200.099 517.314 202.867 516.617C205.634 515.919 208.562 516.271 211.086 517.605C211.602 517.878 212.096 518.191 212.563 518.541L245.681 499.972L245 518.446L213.655 533.248C211.885 534.912 209.642 535.985 207.235 536.319C204.828 536.653 202.377 536.231 200.221 535.112C198.997 534.536 197.908 533.709 197.025 532.684C196.142 531.66 195.485 530.461 195.096 529.166C194.707 527.871 194.595 526.508 194.768 525.167C194.941 523.826 195.394 522.536 196.098 521.382Z" fill="#FFB8B8"/>
<path d="M223.327 510.494L223.645 510.293C255.679 490.055 288.794 469.134 324.387 445.158L324.621 445.001L324.87 445.195C331.181 450.093 334.497 459.452 332.584 466.965C330.814 473.916 324.265 479.26 316.642 479.985L273.801 502.936C260.045 511.082 245.806 519.514 231.727 527.724L231.328 527.957L231.099 527.465C228.408 521.686 225.627 515.715 223.505 510.898L223.327 510.494Z" fill="#CCCCCC"/>
<path d="M892.845 773H1.15504C0.848703 773 0.554914 772.878 0.338302 772.661C0.12169 772.445 0 772.151 0 771.845C0 771.539 0.12169 771.245 0.338302 771.029C0.554914 770.812 0.848703 770.69 1.15504 770.69H892.845C893.151 770.69 893.445 770.812 893.662 771.029C893.878 771.245 894 771.539 894 771.845C894 772.151 893.878 772.445 893.662 772.661C893.445 772.878 893.151 773 892.845 773Z" fill="#CACACA"/>
</g>
<defs>
<clipPath id="clip0_249:578">
<rect width="894" height="773" fill="white"/>
</clipPath>
</defs>
</svg>
