<svg width="686" height="570" viewBox="0 0 686 570" fill="none" xmlns="http://www.w3.org/2000/svg">
<g clip-path="url(#clip0_249:703)">
<path d="M453.478 466H43.9548V0H453.478V466Z" fill="white"/>
<path d="M453.478 466H43.9548V0H453.478V466ZM49.9548 460.435H447.478V5.56551H49.9548V460.435Z" fill="#E6E6E6"/>
<path d="M453.645 0H44.6453V59.6124H453.645V0Z" fill="#A3B78F"/>
<path d="M103.284 148.003C122.516 148.003 138.106 132.412 138.106 113.181C138.106 93.9491 122.516 78.3589 103.284 78.3589C84.0527 78.3589 68.4624 93.9491 68.4624 113.181C68.4624 132.412 84.0527 148.003 103.284 148.003Z" fill="#E6E6E6"/>
<path d="M285.381 88.6006H166.1V98.8423H285.381V88.6006Z" fill="#E6E6E6"/>
<path d="M428.971 113.181H166.1V123.422H428.971V113.181Z" fill="#E6E6E6"/>
<path d="M428.971 137.761H166.1V148.002H428.971V137.761Z" fill="#E6E6E6"/>
<path d="M103.284 433.031C122.516 433.031 138.106 417.441 138.106 398.21C138.106 378.978 122.516 363.388 103.284 363.388C84.0527 363.388 68.4624 378.978 68.4624 398.21C68.4624 417.441 84.0527 433.031 103.284 433.031Z" fill="#E6E6E6"/>
<path d="M285.381 373.629H166.1V383.871H285.381V373.629Z" fill="#E6E6E6"/>
<path d="M428.971 398.209H166.1V408.451H428.971V398.209Z" fill="#E6E6E6"/>
<path d="M428.971 422.79H166.1V433.031H428.971V422.79Z" fill="#E6E6E6"/>
<path d="M109.088 15.2314H57.1965V22.742H109.088V15.2314Z" fill="white"/>
<path d="M109.088 28.2046H57.1965V35.7152H109.088V28.2046Z" fill="white"/>
<path d="M109.088 41.1772H57.1965V48.6878H109.088V41.1772Z" fill="white"/>
<path d="M497.433 321.958H0V189.432H497.433V321.958Z" fill="white"/>
<path d="M497.433 321.958H0V189.432H497.433V321.958ZM6 315.958H491.433V195.432H6V315.958Z" fill="#CCCCCC"/>
<path d="M61.7291 289.931C80.7428 289.931 96.1564 274.517 96.1564 255.503C96.1564 236.49 80.7428 221.076 61.7291 221.076C42.7154 221.076 27.3018 236.49 27.3018 255.503C27.3018 274.517 42.7154 289.931 61.7291 289.931Z" fill="#A3B78F"/>
<path d="M276.393 226.477H133.959V236.602H276.393V226.477Z" fill="#3F3D56"/>
<path d="M447.855 250.778H133.959V260.904H447.855V250.778Z" fill="#3F3D56"/>
<path d="M447.855 275.08H133.959V285.206H447.855V275.08Z" fill="#3F3D56"/>
<path d="M577.01 356.891C577.448 356.716 577.9 356.576 578.36 356.473L593.548 317.011L587.103 309.012L597.904 297.708C601.024 302.3 616.461 311.976 611.763 318.875L588.191 360.81C588.852 361.992 589.236 363.308 589.315 364.66C589.394 366.012 589.165 367.365 588.646 368.616C588.127 369.867 587.331 370.983 586.318 371.882C585.305 372.781 584.101 373.439 582.798 373.806C572.276 376.96 566.772 360.77 577.01 356.891Z" fill="#A0616A"/>
<path d="M591.383 316.842C588.659 317.628 578.369 301.627 576.649 300.235C574.6 298.297 573.403 295.625 573.32 292.805C573.238 289.985 574.277 287.248 576.21 285.193C578.143 283.138 580.812 281.934 583.632 281.844C586.451 281.754 589.191 282.785 591.251 284.713L607.078 295.791C607.527 296.11 607.902 296.521 608.179 296.996C608.455 297.472 608.627 298.001 608.683 298.548C608.738 299.095 608.676 299.648 608.501 300.17C608.325 300.691 608.04 301.169 607.665 301.571C605.772 302.858 594.073 317.824 591.383 316.842Z" fill="#A3B78F"/>
<path d="M596.767 556.889L584.507 556.888L582.675 509.6L596.769 509.601L596.767 556.889Z" fill="#A0616A"/>
<path d="M599.893 568.773L560.363 568.771C559.992 547.847 586.733 553.552 599.894 552.886L599.893 568.773Z" fill="#2F2E41"/>
<path d="M636.696 552.853L624.518 554.265L613.274 507.965L631.248 505.88L636.696 552.853Z" fill="#A0616A"/>
<path d="M641.172 564.297L601.904 568.852C599.125 548.111 626.345 550.695 639.341 548.517L641.172 564.297Z" fill="#2F2E41"/>
<path d="M598.96 545.663H578.802V469.683L567.031 406.254L550.926 349.897L588.705 331.518L595.908 342.837C597.022 343.853 615.072 360.555 617.019 377.104C619.003 393.972 599.835 539.06 599.018 545.228L598.96 545.663Z" fill="#2F2E41"/>
<path d="M552.292 361.701L546.069 334.422C544.609 333.018 530.796 318.858 546.086 300.763L554.142 279.757L577.746 272.445L586.974 279.59C590.692 282.464 593.645 286.207 595.576 290.491C597.506 294.774 598.354 299.467 598.044 304.155L595.524 342.749L552.292 361.701Z" fill="#2F2E41"/>
<path d="M572.502 227.198C596.825 241.039 576.857 277.558 552.08 264.554C527.758 250.713 547.726 214.194 572.502 227.198Z" fill="#A0616A"/>
<path d="M505.591 276.404C505.669 276.911 505.706 277.423 505.703 277.936L543.754 303.707L553.805 298.848L563.121 313.059C557.493 315.234 543.458 329.202 537.308 322.534L498.697 287.28C497.283 287.689 495.795 287.773 494.344 287.524C492.893 287.275 491.518 286.701 490.321 285.844C489.124 284.988 488.137 283.871 487.434 282.578C486.731 281.284 486.33 279.849 486.262 278.378C485.506 266.463 503.999 264.612 505.591 276.404Z" fill="#A0616A"/>
<path d="M544.465 301.456C544.302 298.379 563.769 291.413 565.665 289.935C568.221 288.241 571.344 287.63 574.349 288.235C577.355 288.841 579.997 290.613 581.698 293.164C583.399 295.715 584.019 298.836 583.422 301.843C582.825 304.851 581.06 307.498 578.514 309.206L562.898 323.243C562.451 323.639 561.924 323.936 561.352 324.112C560.781 324.288 560.178 324.34 559.585 324.264C558.992 324.189 558.422 323.987 557.913 323.673C557.404 323.36 556.968 322.941 556.635 322.444C555.737 320.125 542.764 304.063 544.465 301.456Z" fill="#A3B78F"/>
<path d="M615.097 530.599L590.081 467.936L606.747 443.978L643.383 528.445L615.097 530.599Z" fill="#2F2E41"/>
<path d="M684.625 570H519.625C519.36 570 519.106 569.895 518.918 569.707C518.731 569.52 518.625 569.265 518.625 569C518.625 568.735 518.731 568.48 518.918 568.293C519.106 568.105 519.36 568 519.625 568H684.625C684.891 568 685.145 568.105 685.333 568.293C685.52 568.48 685.625 568.735 685.625 569C685.625 569.265 685.52 569.52 685.333 569.707C685.145 569.895 684.891 570 684.625 570Z" fill="#CCCCCC"/>
<path d="M637.724 245.381C629.599 246.88 621.097 244.402 614.134 239.953C607.172 235.504 601.577 229.215 596.612 222.61C593.818 218.892 591.115 214.97 587.311 212.294C583.507 209.618 578.243 208.432 574.179 210.694C570.597 212.689 569.018 217.925 571.12 221.202C565.476 219.787 559.491 220.213 553.787 221.42C548.292 222.582 542.708 224.588 538.905 228.722C535.102 232.855 533.664 239.572 536.877 244.178L541.645 245C550.351 243.015 554.373 243.896 563.078 245.882C562.784 244.342 565.201 243.523 566.424 244.504C567.647 245.485 567.207 247.437 567.996 248.791C571.36 254.56 571.364 261.638 569.645 267C578.27 263.418 584.591 253.722 586.358 244.551C587.23 240.546 586.909 236.373 585.432 232.55C584.721 230.875 583.746 229.325 582.545 227.959C585.778 228.908 588.761 230.56 591.28 232.797C595.721 236.66 598.932 241.701 602.483 246.396C606.033 251.09 610.177 255.638 615.632 257.849C623.996 261.238 633.93 258.273 640.797 252.417C646.154 247.847 649.942 241.789 652.958 235.374C651.219 237.978 648.975 240.206 646.358 241.925C643.741 243.644 640.805 244.82 637.724 245.381Z" fill="#2F2E41"/>
<path d="M652.958 235.374C654.045 233.69 654.851 231.84 655.342 229.897C654.599 231.735 653.807 233.568 652.958 235.374Z" fill="#2F2E41"/>
</g>
<defs>
<clipPath id="clip0_249:703">
<rect width="685.626" height="570" fill="white"/>
</clipPath>
</defs>
</svg>
