<svg width="659" height="466" viewBox="0 0 659 466" fill="none" xmlns="http://www.w3.org/2000/svg">
<g clip-path="url(#clip0_249:157)">
<path d="M655.864 152.12C646.774 183.645 620.231 205.714 592.543 224.46C588.677 227.078 584.81 229.636 580.941 232.134C580.915 232.145 580.888 232.17 580.862 232.181C580.675 232.301 580.489 232.421 580.316 232.541C579.517 233.055 578.718 233.57 577.927 234.079L578.362 234.274C578.362 234.274 578.789 234.501 578.321 234.311C578.182 234.252 578.037 234.2 577.898 234.142C561.813 227.657 545.442 220.694 533.116 208.545C520.329 195.929 512.856 176.142 519.78 159.569C520.69 157.398 521.84 155.335 523.207 153.419C523.769 152.616 524.374 151.847 525.004 151.092C528.823 146.432 533.815 142.873 539.467 140.781C545.118 138.689 551.225 138.14 557.159 139.189C563.093 140.239 568.641 142.85 573.231 146.753C577.821 150.656 581.289 155.711 583.277 161.398C585.311 142.465 569.694 126.606 554.665 114.904C539.629 103.208 522.544 90.4708 519.637 71.6428C518.014 61.1671 521.658 51.0151 528.296 42.8655C528.502 42.6179 528.707 42.3706 528.919 42.1298C536.999 32.6379 548.364 26.5427 560.744 25.0618C583.8 22.6664 606.194 34.866 622.944 50.8907C649.901 76.6733 666.199 116.275 655.864 152.12Z" fill="#F2F2F2"/>
<path d="M612.529 110.885C616.953 117.767 620.351 125.257 622.613 133.119C624.526 140.146 625.378 147.419 625.139 154.698C624.725 169.659 620.12 184.279 612.874 197.301C607.269 207.174 600.438 216.299 592.543 224.46C588.677 227.078 584.81 229.636 580.941 232.134C580.915 232.145 580.888 232.17 580.862 232.181C580.675 232.301 580.489 232.421 580.316 232.541C579.517 233.055 578.719 233.57 577.927 234.079C577.927 234.079 578.789 234.501 578.322 234.31C578.182 234.252 578.037 234.2 577.898 234.142C579.34 222.326 577.927 210.337 573.779 199.18C569.632 188.023 562.869 178.022 554.058 170.015C545.227 162.13 534.656 156.444 523.208 153.419C523.769 152.616 524.374 151.847 525.004 151.092C529.425 152.331 533.729 153.959 537.863 155.956C552.643 163.052 564.745 174.715 572.378 189.221C579.227 202.393 582.175 217.245 580.875 232.034C581.536 231.435 582.198 230.823 582.84 230.218C595.062 218.826 605.919 205.75 613.266 190.66C619.64 177.88 622.773 163.73 622.388 149.455C621.789 133.89 615.585 119.473 606.603 106.922C596.981 93.4891 584.918 81.6048 572.036 71.3094C558.842 60.7454 544.405 51.835 529.046 44.7769C528.7 44.6153 528.428 44.3268 528.289 43.971C528.149 43.6153 528.152 43.2195 528.296 42.8655C528.399 42.5479 528.622 42.2835 528.919 42.1298C529.071 42.0641 529.236 42.0336 529.402 42.0407C529.568 42.0477 529.73 42.0921 529.877 42.1705C531.773 43.0432 533.656 43.9279 535.524 44.8508C551.084 52.5386 565.627 62.129 578.821 73.4016C591.565 84.2633 603.564 96.6729 612.529 110.885Z" fill="white"/>
<path d="M507.509 332.63C526.13 332.63 541.226 317.54 541.226 298.925C541.226 280.31 526.13 265.219 507.509 265.219C488.888 265.219 473.792 280.31 473.792 298.925C473.792 317.54 488.888 332.63 507.509 332.63Z" fill="#2F2E41"/>
<path d="M481.191 280.752C486.639 275.305 487.744 267.578 483.657 263.493C479.571 259.408 471.841 260.512 466.393 265.958C460.944 271.405 459.84 279.132 463.926 283.217C468.013 287.302 475.742 286.198 481.191 280.752Z" fill="#2F2E41"/>
<path d="M542.651 270.048C544.921 264.735 541.017 257.976 533.931 254.95C526.845 251.924 519.261 253.778 516.99 259.09C514.72 264.403 518.624 271.163 525.71 274.189C532.796 277.214 540.381 275.361 542.651 270.048Z" fill="#2F2E41"/>
<path d="M578.914 443.645C573.12 447.668 566.998 451.197 560.612 454.193L559.668 452.526L550.632 436.67L549.84 435.278L545.218 427.169L545.208 427.16L530.614 401.526L523.112 388.367L545.389 372.749L554.054 391.063L558.753 401.012L578.094 441.901L578.914 443.645Z" fill="#A0616A"/>
<path d="M559.01 381.801L556.217 377.427L543.863 358.055C542.177 354.291 539.066 351.349 535.214 349.873C531.361 348.397 527.081 348.508 523.31 350.181C519.539 351.854 516.585 354.953 515.095 358.799C513.606 362.645 513.702 366.924 515.362 370.7L522.998 397.896C523.213 398.665 523.59 399.38 524.105 399.991C524.619 400.603 525.259 401.097 525.98 401.441C526.702 401.785 527.489 401.971 528.288 401.985C529.087 402 529.88 401.844 530.614 401.526C530.643 401.517 530.662 401.507 530.69 401.498L554.054 391.063L556.57 389.939C557.305 389.608 557.96 389.123 558.491 388.517C559.022 387.911 559.416 387.198 559.648 386.427C559.879 385.655 559.942 384.843 559.832 384.045C559.722 383.247 559.442 382.482 559.01 381.801H559.01Z" fill="#A3B78F"/>
<path d="M491.884 382.411L485.383 397.086L483.972 400.278L459.903 454.632L459.131 456.376C452.613 453.659 446.338 450.395 440.372 446.618L441.02 444.788L460.666 389.377L465.489 375.769L476.051 378.428L491.884 382.411Z" fill="#A0616A"/>
<path d="M533.687 320.692C541.267 306.83 536.171 289.449 522.304 281.871C508.437 274.293 491.05 279.388 483.47 293.25C475.889 307.113 480.986 324.493 494.853 332.071C508.72 339.649 526.106 334.555 533.687 320.692Z" fill="#A0616A"/>
<path d="M558.458 388.557C558.044 384.788 557.294 381.063 556.218 377.427C552.973 366.48 546.768 356.641 538.288 348.993C535.172 346.197 531.131 344.652 526.944 344.657H486.632C483.735 344.649 480.884 345.384 478.352 346.791C475.82 348.199 473.69 350.231 472.168 352.695C470.645 355.159 469.779 357.972 469.653 360.865C469.527 363.758 470.145 366.636 471.447 369.223L476.052 378.428L485.384 397.086L487.623 401.555L497.604 421.518L498.395 423.1L549.059 437.032L549.278 436.546C549.469 436.117 549.659 435.698 549.841 435.278C550.117 434.64 550.393 434.02 550.651 433.391C555.76 421.28 558.172 410.503 558.753 401.012C559.014 396.859 558.916 392.692 558.458 388.557Z" fill="#A3B78F"/>
<path d="M493.943 349.879C490.214 348.132 485.945 347.934 482.07 349.327C478.195 350.72 475.03 353.591 473.268 357.311L469.674 362.733L457.663 380.858C457.218 381.53 456.922 382.291 456.797 383.088C456.672 383.885 456.72 384.699 456.938 385.476C457.156 386.253 457.539 386.974 458.06 387.589C458.582 388.205 459.23 388.701 459.961 389.043L460.666 389.377L483.973 400.278L485.631 401.05C486.256 401.344 486.933 401.516 487.623 401.555C488.544 401.628 489.469 401.467 490.311 401.088C491.047 400.759 491.702 400.275 492.234 399.67C492.765 399.065 493.159 398.353 493.39 397.581L501.455 370.604C503.204 366.86 503.396 362.574 501.988 358.688C500.579 354.803 497.686 351.634 493.943 349.879Z" fill="#A3B78F"/>
<path d="M550.651 433.392C550.481 432.798 550.206 432.24 549.84 431.743C548.537 429.996 546.979 428.454 545.218 427.169L545.208 427.16C539.079 422.519 526.877 417.097 503.342 416.954H503.304C502.225 416.953 501.169 417.263 500.261 417.845C499.354 418.428 498.633 419.26 498.185 420.241L497.604 421.518L493.857 429.751C493.54 430.46 493.036 431.069 492.399 431.514C489.015 433.906 478.244 442.578 472.677 459.139C472.477 459.73 472.286 460.33 472.105 460.95C495.906 467.901 521.231 467.672 544.903 460.292L545.427 458.129L550.632 436.67L550.718 436.317C550.954 435.353 550.931 434.344 550.651 433.392Z" fill="#2F2E41"/>
<path d="M478.51 288.978C485.049 293.484 492.811 295.881 500.752 295.85C497.919 297.813 494.694 299.14 491.299 299.737C501.858 302.002 512.771 302.063 523.355 299.917C525.707 299.54 527.977 298.761 530.065 297.613C531.106 297.033 532.012 296.239 532.726 295.285C533.439 294.331 533.944 293.238 534.207 292.076C534.911 288.059 531.78 284.41 528.527 281.951C523.545 278.243 517.802 275.689 511.712 274.472C505.622 273.256 499.337 273.407 493.313 274.917C489.38 275.933 485.439 277.651 482.884 280.808C480.329 283.966 479.572 288.835 482.006 292.087L478.51 288.978Z" fill="#2F2E41"/>
<path d="M517.985 29.044H1.03516V31.1153H517.985V29.044Z" fill="#3F3D56"/>
<path d="M18.6465 21.7532C22.0794 21.7532 24.8623 18.9712 24.8623 15.5395C24.8623 12.1077 22.0794 9.32574 18.6465 9.32574C15.2136 9.32574 12.4307 12.1077 12.4307 15.5395C12.4307 18.9712 15.2136 21.7532 18.6465 21.7532Z" fill="#3F3D56"/>
<path d="M36.5171 21.7532C39.95 21.7532 42.7329 18.9712 42.7329 15.5395C42.7329 12.1077 39.95 9.32574 36.5171 9.32574C33.0842 9.32574 30.3013 12.1077 30.3013 15.5395C30.3013 18.9712 33.0842 21.7532 36.5171 21.7532Z" fill="#3F3D56"/>
<path d="M54.3877 21.7532C57.8206 21.7532 60.6035 18.9712 60.6035 15.5395C60.6035 12.1077 57.8206 9.32574 54.3877 9.32574C50.9548 9.32574 48.1719 12.1077 48.1719 15.5395C48.1719 18.9712 50.9548 21.7532 54.3877 21.7532Z" fill="#3F3D56"/>
<path d="M406.028 149.246H112.626C111.753 149.246 110.888 149.074 110.081 148.74C109.275 148.406 108.542 147.916 107.924 147.299C107.307 146.682 106.817 145.949 106.483 145.143C106.149 144.336 105.977 143.472 105.977 142.599C105.977 141.726 106.149 140.862 106.483 140.055C106.817 139.249 107.307 138.516 107.924 137.899C108.542 137.282 109.275 136.792 110.081 136.458C110.888 136.124 111.753 135.952 112.626 135.952H406.028C406.901 135.952 407.766 136.124 408.573 136.458C409.379 136.792 410.112 137.282 410.73 137.899C411.347 138.516 411.837 139.249 412.171 140.055C412.505 140.862 412.677 141.726 412.677 142.599C412.677 143.472 412.505 144.336 412.171 145.143C411.837 145.949 411.347 146.682 410.73 147.299C410.112 147.916 409.379 148.406 408.573 148.74C407.766 149.074 406.901 149.246 406.028 149.246Z" fill="#CCCCCC"/>
<path d="M406.028 220.703H112.626C111.753 220.703 110.888 220.531 110.081 220.197C109.275 219.862 108.542 219.373 107.924 218.756C107.307 218.138 106.817 217.406 106.483 216.599C106.149 215.793 105.977 214.928 105.977 214.055C105.977 213.183 106.149 212.318 106.483 211.512C106.817 210.705 107.307 209.972 107.924 209.355C108.542 208.738 109.275 208.248 110.081 207.914C110.888 207.58 111.753 207.408 112.626 207.408H406.028C406.901 207.408 407.766 207.58 408.573 207.914C409.379 208.248 410.112 208.738 410.73 209.355C411.347 209.972 411.837 210.705 412.171 211.512C412.505 212.318 412.677 213.183 412.677 214.055C412.677 214.928 412.505 215.793 412.171 216.599C411.837 217.406 411.347 218.138 410.73 218.756C410.112 219.373 409.379 219.862 408.573 220.197C407.766 220.531 406.901 220.703 406.028 220.703Z" fill="#E6E6E6"/>
<path d="M406.028 248.122H112.626C110.862 248.122 109.171 247.422 107.924 246.175C106.677 244.928 105.977 243.238 105.977 241.475C105.977 239.712 106.677 238.021 107.924 236.775C109.171 235.528 110.862 234.828 112.626 234.828H406.028C407.792 234.828 409.483 235.528 410.73 236.775C411.977 238.021 412.677 239.712 412.677 241.475C412.677 243.238 411.977 244.928 410.73 246.175C409.483 247.422 407.792 248.122 406.028 248.122Z" fill="#E6E6E6"/>
<path d="M358.236 120.996H160.418C158.654 120.996 156.963 120.296 155.716 119.049C154.469 117.803 153.769 116.112 153.769 114.349C153.769 112.586 154.469 110.895 155.716 109.649C156.963 108.402 158.654 107.702 160.418 107.702H358.236C359.999 107.702 361.691 108.402 362.938 109.649C364.185 110.895 364.885 112.586 364.885 114.349C364.885 116.112 364.185 117.803 362.938 119.049C361.691 120.296 359.999 120.996 358.236 120.996Z" fill="#CCCCCC"/>
<path d="M216.064 193.283H112.999C112.125 193.284 111.26 193.113 110.452 192.78C109.644 192.446 108.91 191.956 108.292 191.339C107.674 190.722 107.183 189.989 106.849 189.182C106.514 188.375 106.342 187.51 106.342 186.636C106.342 185.763 106.514 184.898 106.849 184.091C107.183 183.284 107.674 182.55 108.292 181.933C108.91 181.316 109.644 180.826 110.452 180.493C111.26 180.159 112.125 179.988 112.999 179.989H216.064C217.827 179.989 219.519 180.689 220.766 181.936C222.013 183.182 222.713 184.873 222.713 186.636C222.713 188.399 222.013 190.09 220.766 191.336C219.519 192.583 217.827 193.283 216.064 193.283Z" fill="#E6E6E6"/>
<path d="M406.401 193.283H303.336C302.463 193.284 301.597 193.113 300.789 192.78C299.982 192.446 299.248 191.956 298.63 191.339C298.011 190.722 297.521 189.989 297.186 189.182C296.851 188.375 296.679 187.51 296.679 186.636C296.679 185.763 296.851 184.898 297.186 184.091C297.521 183.284 298.011 182.55 298.63 181.933C299.248 181.316 299.982 180.826 300.789 180.493C301.597 180.159 302.463 179.988 303.336 179.989H406.401C407.275 179.988 408.141 180.159 408.948 180.493C409.756 180.826 410.49 181.316 411.108 181.933C411.727 182.55 412.217 183.284 412.552 184.091C412.886 184.898 413.059 185.763 413.059 186.636C413.059 187.51 412.886 188.375 412.552 189.182C412.217 189.989 411.727 190.722 411.108 191.339C410.49 191.956 409.756 192.446 408.948 192.78C408.141 193.113 407.275 193.284 406.401 193.283Z" fill="#E6E6E6"/>
<path d="M511.768 0H7.24462C5.32249 0.0029232 3.48005 0.768175 2.12178 2.12776C0.763512 3.48734 0.000422016 5.33013 0 7.25162V349.012C0.00242152 350.932 0.766464 352.772 2.12457 354.13C3.48268 355.488 5.32398 356.251 7.24462 356.254H384.522C384.427 355.568 384.351 354.872 384.274 354.186H7.24462C5.87221 354.185 4.55637 353.639 3.58592 352.669C2.61546 351.699 2.06969 350.384 2.06843 349.012V7.25162C2.06932 5.87868 2.61467 4.5621 3.58493 3.59041C4.55519 2.61872 5.87122 2.07118 7.24462 2.06781H511.768C513.143 2.06924 514.461 2.61585 515.433 3.58769C516.406 4.55954 516.952 5.87723 516.954 7.25162V216.71C517.64 216.758 518.336 216.815 519.023 216.882V7.25162C519.022 5.32861 518.257 3.48465 516.897 2.12491C515.537 0.765164 513.692 0.00088374 511.768 0Z" fill="#3F3D56"/>
<path d="M384.523 356.254C384.427 355.568 384.351 354.872 384.274 354.186C384.255 354.081 384.246 353.986 384.236 353.881C383.96 351.375 383.76 348.843 383.636 346.286C383.112 348.488 382.638 350.698 382.216 352.919C382.244 353.243 382.273 353.557 382.311 353.881C382.321 353.986 382.33 354.081 382.349 354.186C382.425 354.872 382.502 355.568 382.597 356.254C382.864 358.379 383.188 360.475 383.569 362.562C383.579 362.476 383.588 362.4 383.598 362.314C383.865 360.304 384.17 358.303 384.532 356.301C384.524 356.287 384.521 356.27 384.523 356.254ZM519.023 214.966C518.336 214.9 517.641 214.842 516.954 214.795C516.849 214.785 516.754 214.785 516.649 214.776C513.599 214.547 510.51 214.433 507.403 214.433C489.809 214.438 472.411 218.131 456.333 225.273C440.255 232.414 425.853 242.846 414.057 255.896C402.261 268.945 393.333 284.321 387.848 301.033C382.364 317.745 380.445 335.42 382.216 352.919C382.244 353.243 382.273 353.557 382.311 353.881C382.321 353.986 382.33 354.081 382.349 354.186C382.425 354.872 382.502 355.568 382.597 356.254C382.864 358.379 383.188 360.475 383.569 362.562C387.357 383.251 396.251 402.668 409.447 419.05C422.642 435.433 439.72 448.263 459.132 456.376C461.114 457.195 463.116 457.977 465.146 458.691C466.481 459.177 467.815 459.625 469.169 460.054C470.141 460.368 471.123 460.664 472.105 460.95C473.496 461.359 474.907 461.75 476.328 462.112C493.751 466.581 511.932 467.244 529.634 464.057C547.337 460.87 564.145 453.908 578.914 443.645H578.923C595.672 432.085 609.363 416.634 618.822 398.618C628.281 380.603 633.225 360.562 633.229 340.216C633.229 274.771 582.975 220.846 519.023 214.966ZM578.094 441.901C572.27 445.967 566.105 449.521 559.668 452.526C555.043 454.69 550.287 456.561 545.427 458.129C523.498 465.183 500.038 465.998 477.672 460.483C475.994 460.073 474.329 459.625 472.677 459.139C471.047 458.663 469.433 458.158 467.834 457.624C466.528 457.176 465.222 456.719 463.926 456.233C462.573 455.718 461.238 455.185 459.904 454.632C439.831 446.27 422.305 432.787 409.079 415.531C395.852 398.276 387.388 377.852 384.532 356.301C384.524 356.287 384.521 356.27 384.523 356.254C384.427 355.568 384.351 354.872 384.274 354.186C384.255 354.081 384.246 353.986 384.236 353.881C383.96 351.375 383.76 348.843 383.636 346.286C383.531 344.276 383.48 342.252 383.483 340.216C383.519 307.373 396.586 275.885 419.818 252.661C443.05 229.437 474.548 216.374 507.403 216.338C510.51 216.338 513.599 216.453 516.649 216.681C516.754 216.691 516.849 216.701 516.954 216.71C517.641 216.758 518.336 216.815 519.023 216.882C581.926 222.751 631.322 275.819 631.322 340.216C631.32 360.202 626.477 379.89 617.208 397.597C607.938 415.305 594.518 430.506 578.094 441.901ZM463.926 456.233C462.573 455.718 461.238 455.185 459.904 454.632C439.831 446.27 422.305 432.787 409.079 415.531C395.852 398.276 387.388 377.852 384.532 356.301C384.17 358.303 383.865 360.304 383.598 362.314C383.588 362.4 383.579 362.476 383.569 362.562C387.357 383.251 396.251 402.668 409.447 419.05C422.642 435.433 439.72 448.263 459.132 456.376C461.114 457.195 463.116 457.977 465.146 458.691C464.727 457.881 464.317 457.062 463.926 456.233ZM516.649 214.776C513.599 214.547 510.51 214.433 507.403 214.433C489.809 214.438 472.411 218.131 456.333 225.273C440.255 232.414 425.853 242.846 414.057 255.896C402.261 268.945 393.333 284.321 387.848 301.033C382.364 317.745 380.445 335.42 382.216 352.919C382.244 353.243 382.273 353.557 382.311 353.881C382.32 353.986 382.33 354.081 382.349 354.186H384.274C384.255 354.081 384.246 353.986 384.236 353.881C383.96 351.375 383.76 348.843 383.636 346.286C383.531 344.276 383.48 342.252 383.483 340.216C383.519 307.373 396.586 275.885 419.818 252.661C443.05 229.437 474.548 216.374 507.403 216.338C510.51 216.338 513.599 216.453 516.649 216.681C516.754 216.691 516.849 216.701 516.954 216.71V214.795C516.849 214.785 516.754 214.785 516.649 214.776H516.649Z" fill="#3F3D56"/>
<path d="M609.679 246.628C648.327 247.288 648.32 304.756 609.678 305.41C571.031 304.751 571.037 247.282 609.679 246.628Z" fill="#A3B78F"/>
<path d="M609.679 292.023C609.131 292.022 608.606 291.804 608.218 291.417C607.831 291.03 607.613 290.505 607.613 289.957V279.006C607.612 278.762 607.515 278.528 607.343 278.355C607.17 278.182 606.936 278.085 606.692 278.085H595.736C595.188 278.085 594.663 277.867 594.275 277.48C593.888 277.092 593.67 276.567 593.67 276.019C593.67 275.471 593.888 274.946 594.275 274.558C594.663 274.171 595.188 273.953 595.736 273.953H606.692C606.936 273.953 607.17 273.856 607.343 273.684C607.515 273.511 607.612 273.277 607.613 273.033V262.081C607.613 261.533 607.83 261.008 608.218 260.62C608.605 260.233 609.131 260.015 609.679 260.015C610.227 260.015 610.752 260.233 611.14 260.62C611.527 261.008 611.745 261.533 611.745 262.081V273.033C611.745 273.277 611.842 273.511 612.015 273.684C612.187 273.856 612.421 273.953 612.666 273.953H623.621C624.169 273.953 624.695 274.171 625.082 274.558C625.47 274.946 625.687 275.471 625.687 276.019C625.687 276.567 625.47 277.092 625.082 277.48C624.695 277.867 624.169 278.085 623.621 278.085H612.666C612.421 278.085 612.187 278.182 612.015 278.355C611.842 278.528 611.745 278.762 611.745 279.006V289.957C611.744 290.505 611.526 291.03 611.139 291.417C610.752 291.804 610.227 292.022 609.679 292.023Z" fill="white"/>
</g>
<defs>
<clipPath id="clip0_249:157">
<rect width="659" height="466" fill="white"/>
</clipPath>
</defs>
</svg>
